<svg width="59" height="66" viewBox="0 0 59 66" fill="none" xmlns="http://www.w3.org/2000/svg">
<path d="M48.3853 46.6447C48.3853 41.6886 46.4165 36.9356 42.9121 33.4311C39.4076 29.9267 34.6546 27.9579 29.6985 27.9579C24.7425 27.9579 19.9894 29.9267 16.485 33.4311C12.9805 36.9356 11.0117 41.6886 11.0117 46.6447L29.6985 46.6447H48.3853Z" fill="#2E3F57"/>
<path d="M41.1449 17.1968L34.1062 22.6036L38.2023 24.3004L42.2941 25.9953L41.1449 17.1968Z" fill="#2E3F57"/>
<path d="M57.9955 34.0522L57.9998 34.054L57.9955 34.0522L49.2025 32.9L50.8944 36.9934L52.5905 41.0885L57.9955 34.0522Z" fill="#2E3F57"/>
<path d="M1.69483 34.0524L7.10343 41.0868L8.79842 36.995L10.4952 32.8989L1.69483 34.0524Z" fill="#2E3F57"/>
<path d="M18.5518 17.1968L17.3978 25.994L21.4929 24.2979L25.5881 22.6017L18.5518 17.1968Z" fill="#2E3F57"/>
<path d="M29.8536 0.146447C29.6583 -0.0488155 29.3417 -0.0488155 29.1464 0.146447L25.9645 3.32843C25.7692 3.52369 25.7692 3.84027 25.9645 4.03553C26.1597 4.2308 26.4763 4.2308 26.6716 4.03553L29.5 1.20711L32.3284 4.03553C32.5237 4.2308 32.8403 4.2308 33.0355 4.03553C33.2308 3.84027 33.2308 3.52369 33.0355 3.32843L29.8536 0.146447ZM29.5 15H30V0.5H29.5H29V15H29.5Z" fill="#2E3F57"/>
<path d="M1 46.5L59 46.5" stroke="#2E3F57"/>
</svg>
