<svg width="59" height="66" viewBox="0 0 59 66" fill="none" xmlns="http://www.w3.org/2000/svg">
<path d="M10.6139 18.6868C10.6139 23.6429 12.5826 28.3959 16.0871 31.9004C19.5916 35.4049 24.3446 37.3736 29.3007 37.3736C34.2567 37.3736 39.0098 35.4049 42.5142 31.9004C46.0187 28.396 47.9875 23.6429 47.9875 18.6868L29.3007 18.6868L10.6139 18.6868Z" fill="#2E3F57"/>
<path d="M17.8543 48.1348L24.893 42.7279L20.7969 41.0312L16.7051 39.3362L17.8543 48.1348Z" fill="#2E3F57"/>
<path d="M1.0037 31.2793L0.999396 31.2775L1.0037 31.2793L9.79664 32.4315L8.1048 28.3381L6.40866 24.243L1.0037 31.2793Z" fill="#2E3F57"/>
<path d="M57.3044 31.2792L51.8958 24.2448L50.2008 28.3365L48.504 32.4326L57.3044 31.2792Z" fill="#2E3F57"/>
<path d="M40.4474 48.1348L41.6014 39.3375L37.5063 41.0337L33.4111 42.7298L40.4474 48.1348Z" fill="#2E3F57"/>
<path d="M29.1466 65.3535C29.3419 65.5488 29.6585 65.5488 29.8537 65.3535L33.0357 62.1716C33.231 61.9763 33.231 61.6597 33.0357 61.4645C32.8404 61.2692 32.5238 61.2692 32.3286 61.4645L29.5002 64.2929L26.6717 61.4645C26.4765 61.2692 26.1599 61.2692 25.9646 61.4645C25.7694 61.6597 25.7694 61.9763 25.9646 62.1716L29.1466 65.3535ZM29.5002 50.5L29.0002 50.5L29.0002 65L29.5002 65L30.0002 65L30.0002 50.5L29.5002 50.5Z" fill="#2E3F57"/>
<path d="M58.0002 19L0.000160217 19" stroke="#2E3F57"/>
</svg>
