<svg width="73" height="129" viewBox="0 0 73 129" fill="none" xmlns="http://www.w3.org/2000/svg">
<path d="M8.8346 0L0 14.5297H8.8346H17.6692L8.8346 0Z" fill="#F08A12"/>
<path d="M8.8346 128.441L17.6692 113.911H8.8346H0L8.8346 128.441Z" fill="#F08A12"/>
<path d="M40.883 119.833L41.2791 102.825L33.6265 107.251L25.98 111.677L40.883 119.833Z" fill="#F08A12"/>
<path d="M64.3403 96.3293L56.2003 81.3967L51.783 89.0645L47.3657 96.7262L64.3403 96.3293Z" fill="#F08A12"/>
<path d="M72.9248 64.2175L58.4238 55.3654V64.2175V73.0697L72.9248 64.2175Z" fill="#F08A12"/>
<path d="M64.3403 32.1057L47.3657 31.7089L51.783 39.3767L56.2003 47.0383L64.3403 32.1057Z" fill="#F08A12"/>
<path d="M40.883 8.60181L25.98 16.758L33.6265 21.184L41.2791 25.6101L40.883 8.60181Z" fill="#F08A12"/>
<path d="M8.8346 21.941C5.80037 21.941 2.85144 22.2707 0 22.8873V105.548C2.84535 106.164 5.80037 106.494 8.8346 106.494C32.1336 106.494 51.0274 87.5688 51.0274 64.2175C51.0274 40.8663 32.1336 21.941 8.8346 21.941Z" fill="#F08A12"/>
</svg>
