<?xml version="1.0" encoding="UTF-8"?>
<svg id="Layer_2" xmlns="http://www.w3.org/2000/svg" version="1.1" viewBox="0 0 1026.72 253.58">
  <!-- Generator: Adobe Illustrator 29.8.1, SVG Export Plug-In . SVG Version: 2.1.1 Build 2)  -->
  <defs>
    <style>
      .st0 {
        fill: #022f49;
      }
    </style>
  </defs>
  <path class="st0" d="M639.77,0c-32.75,0-59.4,26.65-59.4,59.4v51.31c0,19.51-15.88,35.39-35.39,35.39h-10.1c-19.51,0-35.39-15.88-35.39-35.39v-51.31c0-32.75-26.65-59.4-59.4-59.4H0v253.58h1026.72V0h-386.95ZM1014.72,241.58H12V12h428.08c26.18,0,47.4,21.22,47.4,47.4v51.31c0,26.17,21.22,47.39,47.39,47.39h10.1c26.17,0,47.39-21.22,47.39-47.39v-51.31c0-26.18,21.22-47.4,47.4-47.4h374.95v229.58Z"/>
</svg>