<svg width="1512" height="982" viewBox="0 0 1512 982" fill="none" xmlns="http://www.w3.org/2000/svg">
<path d="M0 0H1512V982H0V0Z" fill="#E4F4FF"/>
<g filter="url(#filter0_f_4121_1018)">
<circle cx="973" cy="399" r="393" fill="#F08A12" fill-opacity="0.25"/>
</g>
<g filter="url(#filter1_d_4121_1018)">
<path d="M31.7954 1057.36C59.8989 1044.48 94.9509 1046.88 125.617 1047.62C162.016 1048.49 201.382 1055.66 237.626 1051.57C242.071 1051.07 247.041 1050.25 250.188 1046.72C251.117 1042.64 238.746 1035.07 234.98 1033.95L235.588 1028.28C261.2 1023.11 288.684 1028.66 315.012 1028.47C325.166 1024.61 376.439 1028.39 380.658 1022.61C385.628 1015.81 366.344 1014.31 363.543 1012.62C359.11 1009.95 360.123 1006.14 360.433 1001.4L371.946 999.366C362.876 980.332 370.373 973.586 386.415 987.781C392.767 980.511 386.009 972.025 393.172 963.599C398.548 957.282 432.586 936.723 440.548 935.579C444.147 935.066 444.6 936.997 442.526 939.512C435.673 947.807 409.894 954.744 405.615 968.39C402.326 978.878 416.079 1008.97 412.087 1028.9C408.404 1047.24 372.518 1045.7 386.605 1070.74C396.51 1088.35 432.014 1086.55 447.973 1078.33C467.71 1068.16 473.884 1033.19 500.497 1059.43C505.98 1059.39 509.52 1044.33 518.28 1042.32C533.881 1038.73 545.894 1056.2 559.088 1036.77C575.607 1012.43 574.868 1001.64 609.229 996.064C637.38 991.488 659.584 1002.75 681.859 1001.23C697.758 1000.13 717.877 986.816 734.634 986.017C744.347 985.552 751.153 989.331 762.463 986.947C774.513 984.408 789.506 969.677 798.099 968.438C804.511 967.52 797.753 981.178 803.88 983.848C822.854 976.792 843.02 962.49 862.458 957.449C874.091 954.434 880.777 958.7 890.49 956.46C896.342 955.113 902.456 947.283 910.263 947.402C916.353 947.497 919.655 954.434 924.601 956.007C933.349 958.796 943.861 953.099 949.796 961.692C944.635 969.451 916.282 986.72 918.987 996.291C924.529 1003.68 935.673 994.003 941.561 990.141C963.014 976.054 980.522 952.729 1008.78 952.813C1017.92 952.837 1025.17 955.757 1035.64 954.708C1067.47 951.526 1102.79 936.544 1136.31 935.471C1156 934.84 1150.82 948.212 1167.19 947.259C1193.9 945.697 1223.66 927.129 1252.4 929.715C1272.14 931.491 1264.39 944.684 1273.76 950.858C1283.58 957.318 1306.94 956.638 1321.55 966.841C1356.69 991.381 1308.73 1002.33 1305.65 1014.26C1303.32 1023.35 1319.79 1024.86 1321.95 1028.3C1331.15 1043.01 1286.12 1049.03 1288.4 1059.97C1289.86 1067 1315.49 1070.89 1322.48 1072.2C1351.12 1077.6 1379.88 1078.27 1408.87 1080.67L1462 1074.74V1096H31.7954V1057.35V1057.36Z" fill="#59654A"/>
<path d="M657.022 384.783C657.772 384.58 661.038 381.184 661.181 379.992C660.12 370.016 651.67 365.106 646.39 357.74C652.23 360.183 656.378 353.104 658.881 352.711C666.342 351.543 674.101 350.494 681.085 345.071C684.195 342.652 684.541 336.871 686.96 335.346C690.524 333.105 699.725 340.351 697.759 330.542C696.328 323.391 692.8 323.666 701.489 317.146L706.209 331.71C719.116 337.789 727.59 328.707 739.866 332.759C742.917 332.223 742.214 321.234 744.765 317.921C747.315 314.608 759.245 312.498 760.115 311.068C767.016 299.9 745.289 311.7 743.406 304.346C743.06 303.011 744.657 300.58 744.312 299.054C743.644 296.146 741.022 293.429 740.963 291.152C740.927 290.056 753.787 285.396 749.77 280.39C739.795 283.393 738.4 294.287 727.602 298.768L735.313 308.398C724.408 313.69 730.701 323.093 718.794 328.671C713.753 329.911 711.131 311.604 705.005 309.59L686.77 312.141C675.102 280.283 710.94 293.977 719.843 271.678L715.97 270.724C725.54 260.451 747.792 257.101 761.26 259.259C766.289 260.069 773.238 264.348 779.626 266.016C787.873 268.174 795.537 264.3 800.972 273.692L797.801 278.257L777.802 276.552C781.89 283.036 787.73 288.042 795.179 290.056L791.33 282.345C794.75 281.427 798.898 284.895 801.687 284.43C802.604 284.275 806.442 274.657 814.511 278.459L810.661 266.886L818.372 266.863L818.349 273.322C824.594 278.948 826.894 270.212 829.564 268.901C836.739 265.385 851.923 269.64 861.445 266.791C863.197 266.267 862.077 263.347 865.605 262.87C874.508 261.654 881.683 264.682 889.895 266.863C888.953 261.571 880.193 263.49 880.086 258.234C879.907 249.402 887.618 244.099 895.46 247.805C891.742 258.424 913.374 271.058 895.711 272.703C895.198 281.892 908.595 277.625 909.369 271.666C910.358 264.026 901.729 259.008 901.515 251.428L911.157 253.359V247.543L916.949 249.509L916.985 243.705C920.775 242.573 926.258 246.339 929.237 245.445C932.217 244.551 932.407 239.295 935.613 238.199C941.43 236.197 952.097 239.176 958.58 237.949C963.05 237.102 962.191 233.515 964.873 232.18C967.805 230.714 993.143 233.503 999.126 234.028C1015.78 235.482 1006.24 241.62 998.137 247.543C1011.56 242.108 1026.1 250.01 1037.86 249.605C1042.52 249.45 1044.63 245.517 1049.11 245.636C1057.06 245.851 1071.38 255.898 1080.11 257.352L1083.97 251.905L1100.55 255.29L1100.59 249.533C1108.01 252.37 1116.32 249.402 1122.34 249.903C1128.36 250.403 1137.28 256.267 1144.22 257.078C1152.28 258.031 1158.11 254.849 1165.22 255.195C1172.34 255.54 1177.03 260.093 1182.81 260.963C1192.98 262.5 1203.47 259.092 1213.6 264.968L1212.66 259.163C1218.14 257.817 1224.99 262.62 1229.46 262.56C1232.17 262.524 1233.79 259.545 1236.46 259.557C1241.24 259.58 1258.64 268.746 1266.25 270.283C1276.03 272.262 1287.83 270.009 1297.69 275.563L1295.76 278.483L1296.75 286.135L1273.65 278.388L1271.38 282.452L1259.03 280.414C1264.42 287.958 1282.44 281.951 1284.14 293.917C1273.83 288.745 1267.87 302.689 1265.92 302.963C1263.43 303.321 1244.8 299.888 1243.56 304.584C1242.29 313.511 1255.09 313.583 1257.85 318.994C1258.1 319.482 1260.65 329.041 1260.72 329.589C1261.16 333.498 1258.27 342.222 1260.94 348.051C1256.29 346.477 1254.95 341.233 1251.72 338.373C1247.76 334.857 1232.45 325.978 1230.93 322.927C1226.8 314.715 1245.6 291.808 1228.11 292.022L1230.03 301.664C1223.85 301.974 1219.02 292.547 1212.62 296.825C1207.01 301.986 1217.72 303.953 1216.51 309.399C1209.46 311.688 1201.88 305.883 1196.27 305.824C1192.57 305.788 1188.34 308.219 1184.34 308.744C1179.36 309.399 1176.21 304.286 1171.2 311.461C1170.35 312.689 1163.61 328.135 1164.34 328.719C1172.01 325.358 1174.54 332.628 1175.2 332.7C1178.97 333.117 1181.85 329.196 1187.41 331.627C1196.69 335.667 1196.51 341.627 1199.64 348.503C1204.3 358.741 1206.45 357.847 1204.69 371.995C1201.69 396.308 1188 382.375 1185.6 384.783C1187.07 392.578 1189.18 395.986 1181.75 401.242L1181.73 404.055C1192.18 407.011 1207.57 427.761 1187.57 427.26C1185.83 423.446 1186.45 416.939 1184.59 413.78C1181.25 408.083 1168.92 413.9 1170.06 400.265L1156.59 404.091L1153.71 396.38L1143.06 404.127C1144.04 417.797 1163.46 408.715 1166.22 414.746C1168.12 418.893 1156.72 418.309 1158.73 425.925C1159.76 429.858 1169.79 435.52 1171.17 438.916C1172.4 441.944 1169.51 445.161 1170.27 446.318C1171.04 447.474 1178.05 447.927 1177.53 453.004C1177.41 454.148 1170.98 473.313 1170.17 474.683C1164.18 484.73 1150.14 488.854 1140.01 492.906L1142.58 501.702L1136.24 508.436L1131.52 505.397C1139.87 478.89 1112.88 495.505 1118.86 508.412C1122.54 516.35 1133.77 517.22 1137.33 530.616C1141.57 546.587 1137.02 541.688 1129.62 548.16C1125.78 551.509 1125.43 558.446 1117.92 556.789C1119.9 546.491 1115.32 547.219 1110.17 542.284C1107.69 539.913 1106.24 531.891 1101.51 537.481C1093.65 550.83 1101.52 566.419 1112.76 574.619L1116.92 593.509C1103.17 589.97 1103.65 576.693 1098.3 567.682C1096.18 564.119 1091.11 561.306 1089.92 558.672C1088.03 554.501 1087.81 516.219 1080.22 516.219C1077.12 519.568 1074.72 522.905 1069.6 521.975C1072.67 507.816 1060.2 499.938 1052.96 489.379C1043.18 488.401 1013.44 515.516 1010.68 522.023C1006.9 530.914 1012.33 538.768 1011.6 545.979C1011.1 550.877 1005.82 554.417 1006.11 557.433C1006.22 558.612 1019.35 580.614 1004.86 576.085C998.459 574.082 1005.12 563.511 1003.63 560.96C1003.33 560.448 997.589 557.838 994.526 553.559C991.463 549.28 980.152 526.028 978.627 521.153C975.373 510.748 978.365 501.237 974.849 491.083L971.035 492.013L972.93 496.863C961.989 497.686 956.757 497.173 961.333 485.291C948.891 489.105 950.059 477.15 945.911 474.612C939.249 470.56 926.758 476.34 920.274 475.291C913.886 474.254 904.971 465.137 900.049 464.338C895.127 463.54 890.359 468.188 887.165 467.544C885.628 467.234 874.818 454.184 872.112 451.764C869.633 449.547 869.8 447.39 864.711 448.558C862.733 456.246 867.691 465.339 874.472 468.796C882.326 472.8 880.92 465.518 884.019 480.476C885.211 481.346 893.22 478.342 894.531 477.401C898.118 474.826 896.64 467.938 900.43 469.821C903.47 471.334 904.101 477.329 906.294 479.427C908.487 481.524 912.385 481.286 913.958 483.348C923.981 496.506 905.782 507.626 897.403 515.11C895.437 516.874 894.209 520.939 893.232 521.511C892.254 522.083 876.331 528.185 871.886 530.139C869.443 531.212 853.496 537.517 852.495 537.267C844.569 535.3 845.582 514.276 841.291 507.697C839.134 504.396 834.236 503.204 831.781 499.819C828.443 495.231 828.491 488.449 825.011 483.396C819.302 475.089 812.52 466.078 806.454 457.497C803.606 453.469 796.133 452.932 799.887 446.544C809.91 443.767 819.791 414.603 802.843 418.429C791.115 421.086 795.287 417.559 790.281 417.582C786.36 417.606 785.585 424.102 779.685 417.618C779.983 421.623 779.924 422.016 775.8 421.48C777.135 411.313 765.443 409.108 769.984 398.287C764.764 398.632 758.244 396.403 754.538 401.207L762.201 410.777L753.584 421.456C741.761 416.367 744.622 392.852 738.174 386.607C735.468 383.996 730.868 385.236 727.531 383.722C726.398 383.21 708.056 363.962 712.299 379.587C713.729 384.855 731.07 396.439 737.113 398.31V402.136L731.344 400.205L728.424 413.721C730.093 406.701 701.668 381.458 699.463 381.303C698.188 381.207 682.479 391.243 675.292 386.678L676.425 394.425L660.657 402.088C664.125 407.785 662.349 415.795 655.877 418.643C652.481 420.145 650.049 417.916 647.534 418.226C644.698 418.572 641.683 420.86 639.573 420.657C636.248 420.359 631.516 414.186 625.068 419.513L626.987 384.723C635.247 383.317 649.692 386.654 656.95 384.723L657.022 384.783ZM789.208 373.496C782.081 367.239 780.603 381.386 777.778 385.891C779.769 401.707 793.177 387.846 799.982 388.561C804.19 389.002 811.257 398.561 820.351 394.425C820.053 392.137 821.09 388.847 820.005 387.012C819.588 386.297 806.216 379.491 805.405 379.336C802.473 378.764 799.458 380.814 796.3 380.767C787.289 380.623 790.007 374.199 789.208 373.484V373.496ZM866.725 380.91C866.237 366.488 841.828 375.677 841.637 383.758C841.446 391.839 851.363 392.947 852.84 397.703C856.154 408.417 847.179 424.388 869.645 425.079C886.033 425.58 869.681 409.442 868.93 406.57C868.048 403.209 870.42 399.836 869.776 396.225C868.728 390.218 843.52 383.329 866.713 380.91H866.725Z" fill="#59654A"/>
<path d="M702.43 421.515L696.65 440.811C702.228 443.648 709.653 441.634 714.659 443.112C718.997 444.399 719.033 450.263 723.157 452.003C725.552 453.016 737.59 454.935 739.842 454.172C743.99 453.183 743.692 444.041 745.182 442.992C749.27 440.144 766.229 451.073 773.476 452.026C780.329 452.932 787.635 449.154 793.165 453.492C799.267 458.284 806.835 482.907 809.875 490.904C814.284 502.513 816.62 506.613 822.723 516.66C825.38 521.034 825.571 527.899 827.919 530.843C830.708 534.335 836.727 533.727 839.194 536.015C842.054 538.661 842.662 548.243 846.285 551.199C852.387 556.181 871.969 543.309 880.36 547.981C886.736 552.367 871.814 575.179 868.298 580.578C862.053 590.172 853.734 600.136 845.344 607.871C839.432 613.33 836.488 610.207 831.578 621.16C820.124 646.713 830.887 653.471 832.579 674.96C834.212 695.686 812.485 695.078 807.825 705.649C805.596 710.703 806.466 718.736 803.903 724.921C798.361 738.294 797.754 728.938 796.907 747.245C796.609 753.847 788.362 757.327 784.488 761.558C781.02 765.349 780.138 771.546 775.419 773.739C769.531 776.48 762.392 774.406 756.039 775.622C750.45 776.695 737.351 784.871 733.347 777.577C730.176 771.808 732.322 761.785 730.999 755.301C730.153 751.142 722.394 728.616 720.463 723.312C717.257 714.54 708.473 709.082 706.757 698.343C703.503 678.023 722.62 669.561 713.074 645.676C710.225 638.549 698.14 618.073 697.055 613.389C694.743 603.449 700.178 594.749 696.352 586.037C691.025 584.606 683.516 587.169 678.594 585.453C675.805 584.487 674.982 580.054 672.265 578.218C662.492 571.627 652.433 585.465 643.291 585.703C638.31 585.834 635.402 581.996 631.898 581.996C626.558 581.996 625.7 587.419 615.82 584.487C600.6 579.982 578.587 558.267 577.454 542.034C576.87 533.667 582.46 522.965 582.675 515.134C582.901 506.887 577.55 499.891 580.16 491.643C581.316 488.008 596.071 468.593 599.146 466.031C602.733 463.039 608.049 463.397 610.576 460.059C613.102 456.722 612.626 450.692 614.652 446.747C618.001 440.239 624.174 440.478 627.047 437.82C629.311 435.734 628.572 432.075 629.252 431.432C631.826 428.976 644.531 433.97 649.239 433.16C655.186 432.147 654.34 424.376 660.99 423.351C666.067 422.576 670.453 425.687 674.339 425.305C677.068 425.031 679.261 422.099 682.229 421.551C688.975 420.312 695.744 423.387 702.419 421.48L702.43 421.515Z" fill="#59654A"/>
<path d="M333.306 276.576C332.877 280.199 337.228 278.078 339.194 277.625C343.389 276.671 346.679 274.169 351.744 274.395C355.844 274.574 353.341 279.341 357.191 278.268C366.332 275.587 362.9 269.818 364.509 267.244C365.379 265.85 376.07 263.514 377.738 265.909L373.889 272.667L381.612 272.691L377.75 280.378C384.258 285.133 397.928 261.762 402.85 273.668C404.388 277.363 399.453 276.683 398.262 278.388C397.475 279.52 398.762 282.023 397.153 283.262C394.031 285.646 387.499 286.039 383.554 286.218L389.347 297.791C379.121 293.309 378.596 301.497 370.039 301.676C370.039 298.542 369.693 293.846 365.522 294.191C361.35 294.537 330.243 313.344 328.503 317.158C319.839 336.073 339.301 326.705 345.964 330.566C354.617 335.572 354.736 345.154 356.523 353.855C364.664 355.368 364.568 346.99 368.966 342.175C372.697 338.087 379.24 336.192 382.446 332.461C389.883 323.832 390.348 299.257 407.606 301.628C416.962 302.916 414.471 318.1 421.407 322.831C427.199 325.167 431.323 308.863 436.758 317.099C438.713 320.066 437.02 327.408 438.951 332.163C441.597 338.707 457.436 339.708 445.411 357.716L452.013 359.456C457.818 372.853 441.192 368.264 432.908 371.268L430.775 367.334L437.676 355.833C431.073 354.844 425.543 359.456 419.25 359.778C407.629 360.374 395.294 351.984 391.301 371.256L414.471 365.475L404.817 377.048L421.073 378.836L422.194 384.795C407.88 380.147 402.218 386.75 390.336 392.554L393.22 384.819C392.386 384.175 376.046 392.935 374.735 394.342C371.243 398.108 372.864 403.102 368.93 405.938C364.461 409.156 349.837 409.645 345.392 414.281C341.351 418.512 344.331 427.749 341.971 433.088C338.801 440.251 326.334 444.148 320.745 448.582C309.684 457.354 309.911 470.428 308.171 483.36C303.296 488.556 298.696 465.113 300.436 462.097C291.842 464.708 284.93 457.39 274.585 458.319C271.319 458.617 253.441 463.611 250.2 465.006C230.522 473.456 229.045 522.226 253 518.173C262.297 516.6 264.418 496.625 276.396 504.563C281.08 511.058 259.019 528.149 272.475 529.865C277.862 530.557 286.145 524.121 289.828 531.689C294.071 540.425 286.062 555.561 289.709 560.793C293.165 565.74 312.08 556.181 317.848 565.537C314.404 576.168 304.845 559.697 299.47 574.214L297.635 574.166C293.499 572.426 290.615 564.965 288.327 563.177C285.144 560.686 279.841 561.354 277.111 557.933C274.382 554.513 274.072 545.741 271.224 541.593C268.268 539.758 261.713 544.263 257.375 543.047C253.036 541.831 250.784 532.773 246.326 530.747C241.142 528.399 233.526 530.497 226.971 528.852C223.395 527.946 204.552 517.959 201.823 515.349C193.659 507.578 196.591 495.886 192.67 485.851C190.572 480.476 186.222 477.496 184.124 473.134C181.621 467.949 180.179 454.541 175.793 452.455C166.783 448.165 175.948 468.212 176.258 469.403C177.641 474.719 177.796 481.739 179.166 485.815C180.441 489.593 185.221 490.463 184.506 494.944C167.367 496.851 175.424 475.422 165.198 468.855L169.143 466.924C163.398 457.497 162.766 453.886 165.043 442.933C146.879 437.271 150.8 412.994 157.105 398.942C159.894 392.733 174.029 375.32 174.387 371.959C175.007 366.143 166.163 359.588 174.852 356.429L167.164 316.133C159.334 308.196 125.724 315.633 116.297 321.413C113.091 323.38 112.364 327.563 109.801 328.445C105.773 329.839 98.5145 328.266 93.1632 329.196C84.4389 330.709 77.4429 338.921 68.5518 337.443L95.5945 320.03C89.7307 319.887 81.6739 322.152 82.5082 312.605C83.7715 297.97 113.663 306.026 118.8 293.965L103.377 292.976C110.075 282.857 118.394 286.444 128.453 288.137L127.321 276.445C130.11 272.715 174.578 266.314 181.693 266.803C201.036 268.114 217.794 278.495 239.402 276.338C246.886 275.587 256.791 270.867 264.478 271.38C270.389 271.773 291.378 281.701 295.764 274.693C296.431 273.632 293.428 266.279 298.553 263.037L281.164 266.886C275.693 257.459 296.562 249.486 303.475 249.736C312.068 250.034 314.332 262.131 334.212 259.044C338.741 258.341 342.734 254.074 347.799 255.302C354.831 256.994 343.211 264.872 342.257 266.839C340.612 270.247 344.593 275.861 333.354 276.576H333.306Z" fill="#59654A"/>
<path d="M356.464 552.939C358.562 562.927 364.116 567.992 374.723 566.395C378.108 565.883 381.91 562.45 384.234 562.879C386.558 563.308 392.207 570.9 395.223 573.165C398.238 575.429 402.242 575.191 404.245 576.705C406.533 578.433 407.844 585.131 410.633 586.74C413.732 588.528 418.535 587.288 422.301 588.599C426.067 589.91 438.141 598.837 439.213 602.603C442.252 613.282 434.41 612.293 446.579 619.491C447.318 619.932 447.389 621.911 447.794 622.09C448.986 622.626 458.187 620.147 463.36 622.483C465.779 623.579 464.576 627.572 466.614 629.396C467.436 630.135 482.87 629.598 487.483 631.505C490.665 632.816 490.701 637.119 493.752 638.859C496.803 640.599 502.595 640.086 504.872 642.267C515.753 652.708 490.856 677.629 488.77 686.21C485.874 698.057 499.449 705.971 487.602 723.646C481.762 732.37 473.765 730.857 465.338 736.172C451.275 745.04 459.749 751.309 456.185 763.775C455.077 767.661 451.096 768.185 448.831 771.796C440.024 785.777 449.153 796.098 427.343 786.468C416.974 781.891 429.035 798.374 429.607 801.747C432.694 819.744 405.592 796.956 414.483 821.568L404.841 819.649C403.434 823.82 410.109 826.025 410.132 828.289C410.132 829.541 402.85 844.296 403.053 845.5L412.48 853.628C410.085 858.252 407.63 867.334 409 872.352C410.764 878.823 426.186 883.758 429.941 889.192C398.858 893.066 371.624 867.048 374.032 836.179C373.46 834.034 369.395 836.084 367.906 833.974C361.529 824.917 365.975 795.633 364.116 783.989C363.305 778.888 359.372 775.324 358.55 770.223C355.522 751.285 359.837 726.423 354.045 707.08C350.552 699.082 340.72 698.737 333.903 694.363C319.934 685.388 320.113 668.655 312.449 655.902C310.221 652.195 303.237 646.606 302.831 644.484C302.605 643.292 302.986 621.684 303.237 620.493C304.607 613.985 314.178 605.595 316.359 598.765C320.482 585.87 316.43 587.824 324.463 574.023C325.893 571.568 325.488 567.575 327.335 565.299C330.935 560.841 337.037 563.94 341.03 561.604C342.972 560.472 343.604 556.253 345.88 554.846C350.541 551.974 345.153 563.606 350.672 562.569L352.626 554.143L356.464 552.915V552.939Z" fill="#59654A"/>
<path d="M1282.24 676.64H1289.99C1290.51 682.683 1286.57 688.403 1288.4 694.553C1289.89 699.547 1296.32 700.477 1297.82 703.075C1299.33 705.673 1298.79 709.833 1300.07 712.014C1303.16 717.306 1309.18 719.987 1309.36 729.713C1309.41 732.323 1306.89 754.634 1306.36 755.826C1304.22 760.545 1290.03 769.377 1285.12 775.169C1282.28 778.518 1275.63 791.021 1274.55 791.652C1271.91 793.178 1267.71 792.26 1264.43 793.118C1255.8 795.383 1253.66 793.917 1248.91 794.906C1244.59 795.812 1241.67 801.223 1233.98 796.36L1235.74 786.051C1234.12 779.853 1226.56 786.027 1226.2 783.87C1225.48 779.746 1229.39 781.295 1231.61 777.767C1232.48 776.373 1234.61 770.128 1233.93 769.401L1220.43 777.112L1217.54 765.48C1214.85 761.856 1191.72 764.419 1186.98 765.921C1183.32 767.077 1182.07 771.796 1178.46 772.869C1173.61 774.299 1167.39 772.571 1161.87 773.679C1153.95 775.265 1145.41 786.313 1137.28 776.099C1149.94 762.464 1143.48 753.025 1139.11 737.722C1146.52 735.255 1141.22 732.478 1141.38 727.746C1141.59 722.121 1148.51 718.116 1145.01 711.418C1153.17 713.527 1157.24 707.759 1163.27 705.494C1167.41 703.945 1172.31 704.315 1175.86 702.622C1181.6 699.881 1182.72 690.835 1186.5 687.962C1187.97 686.842 1196.16 686.771 1200.01 682.385C1202.78 679.25 1203.38 673.363 1207.86 670.824C1211.91 669.978 1212.57 675.818 1212.87 678.452L1220.33 678.547C1218.04 667.272 1231.73 667.117 1233.98 659.215C1240.22 666.247 1249.36 659.93 1255.16 665.985C1255.14 668.035 1242.42 672.743 1250.01 681.848C1250.52 682.468 1259.81 689.691 1260.44 689.881C1277.38 694.756 1268.58 655.354 1277.42 655.402C1282.93 661.015 1282.4 669.453 1282.24 676.64Z" fill="#59654A"/>
<path d="M464.718 235.958C499.031 226.924 531.187 223.539 566.203 218.593L636.724 222.443C636.533 230.762 625.545 227.389 618.811 230.595C604.044 237.627 610.218 248.628 607.465 253.073C607.167 253.55 601.815 254.754 599.193 257.352C594.605 261.881 594.891 269.211 593.878 270.39C591.399 273.275 571.245 273.942 566.632 275.051C564.689 275.515 531.556 288.912 529.852 289.972C528.148 291.033 516.384 302.141 512.058 305.538C506.54 309.876 506.564 319.149 495.491 310.52C483.537 301.211 490.736 278.006 503.369 271.713L491.785 270.736L499.413 259.283C491.368 259.235 494.86 248.294 490.51 245.469L462.799 241.739C462.442 239.462 463.812 237.818 464.73 235.958C461.178 236.888 456.602 235.839 452.526 238.259C449.32 240.165 448.307 244.897 446.126 245.553C442.336 246.697 439.999 241.929 436.71 241.81C432.467 241.655 426.067 249.486 421.133 243.753L420.191 236.042C418.761 234.54 404.411 238.771 406.747 233.098C412.385 219.404 456.28 224.731 468.568 228.259C469.176 231.763 465.982 233.408 464.706 235.97L464.718 235.958Z" fill="#59654A"/>
<path d="M389.347 259.151C401.182 257.233 409.715 253.335 423.254 255.206C430.394 256.196 432.622 261.404 437.151 262.572C441.406 263.657 454.016 261.094 452.955 267.625L447.77 275.611C470.141 299.531 440.81 285.074 439.606 286.23L441.513 295.872L433.814 293.953L437.652 309.399C429.142 307.039 416.485 305.121 418.261 294.025L402.886 293.929C402.075 289.543 403.089 290.842 405.341 289.615C406.902 288.769 430.799 281.129 426.055 276.552L415.424 282.297C408.631 277.589 419.178 277.065 420.024 273.418C418.69 262 414.363 269.056 407.606 268.96C402.326 268.877 396.081 262.584 387.416 266.875C386.45 263.657 388.715 261.476 389.335 259.151C384.353 259.962 378.811 258.925 373.888 261.082C372.852 253.717 389.227 247.507 391.265 254.396C391.73 255.945 389.668 257.912 389.335 259.151H389.347Z" fill="#59654A"/>
<path d="M844.032 734.087C833.067 724.182 847.953 710.858 848.99 704.255C849.717 699.559 845.772 694.124 847.763 687.629C849.753 681.133 859.49 681.05 862.375 678.082C865.521 674.828 867.667 650.229 875.938 666.438C880.658 675.687 872.35 705.435 868.203 715.78C864.878 724.075 855.2 744.17 844.044 734.087H844.032Z" fill="#59654A"/>
<path d="M1247.21 614.605L1243.61 615.737C1250.23 624.664 1254.7 610.767 1259.66 611.232C1261.38 611.387 1289.34 622.173 1291.78 623.615C1295.99 626.094 1300.3 632.614 1305.44 635.105L1299.65 640.873L1315.11 655.354C1300.05 657.559 1298.63 640.432 1286.44 642.196C1279.33 659.633 1270.61 638.12 1257.12 645.688C1272.22 631.017 1251.76 623.162 1237.8 624.438C1241.03 615.082 1236.58 615.058 1230.1 609.957C1236.49 602.186 1245.84 604.963 1247.19 614.617L1247.21 614.605Z" fill="#59654A"/>
<path d="M1135.37 595.464C1149.43 597.812 1145.73 587.765 1149.42 584.332C1150.53 583.295 1154.36 583.367 1156.75 581.102C1160.2 577.801 1163.97 570.185 1168.14 569.136C1171.92 568.195 1176.67 577.11 1175.72 580.554C1173.68 587.896 1166.21 583.951 1177.63 598.003C1176.78 603.676 1169.18 607.12 1167.35 610.994C1165.53 614.867 1166.5 623.031 1162.48 625.439C1157.21 628.597 1144.88 621.315 1138.13 620.671C1139.79 610.457 1138.13 605.07 1135.38 595.464H1135.37Z" fill="#59654A"/>
<path d="M1237.8 398.322C1237.62 404.436 1245.26 406.236 1247 411.337C1248.54 415.854 1248.88 424.733 1249.16 429.87C1248.86 430.812 1233.61 440.144 1232.56 440.442C1225.12 442.587 1220.25 437.939 1215.56 448.534C1204.81 430.156 1225.8 435.174 1230.15 432.23C1231.9 431.05 1232.11 426.509 1233.86 424.269C1235.42 422.278 1239.46 422.099 1239.87 420.204C1241.83 410.944 1231.27 402.863 1230.38 398.906C1229.64 395.664 1233.11 389.467 1230.08 384.807L1249.39 391.588C1248.68 397.464 1242.88 398.823 1237.8 398.334V398.322Z" fill="#59654A"/>
<path d="M1112.41 635.784C1111.89 635.486 1108.53 627.954 1106.32 625.439C1103.51 622.221 1094.96 615.332 1093.85 612.793C1091.71 607.871 1093.64 603.64 1089.86 597.454C1085.06 589.612 1074.07 586.442 1069.66 578.063C1081.39 575.835 1082.94 585.619 1089.05 590.542C1094.68 595.083 1102.82 595.5 1108.33 602.186C1110.75 605.118 1119.26 620.004 1119.8 623.603C1120.55 628.764 1119.7 639.967 1112.41 635.784Z" fill="#59654A"/>
<path d="M1361.49 804.179C1365.44 812.772 1354.47 820.721 1347.85 824.344C1344.44 826.204 1316.31 836.346 1315.13 835.095C1313.64 821.353 1334.78 817.801 1345.45 812.283C1350.79 809.518 1354.27 803.011 1361.5 804.179H1361.49Z" fill="#59654A"/>
<path d="M1197.22 643.781C1196.47 647.833 1193.03 646.808 1190.42 647.595C1174.18 652.47 1176.78 649.645 1163.29 647.738C1149.79 645.819 1128.56 649.43 1119.91 637.989C1130.16 638.752 1141.74 636.868 1151.8 637.965C1159.06 638.763 1162.41 642.732 1167.35 643.662C1176.07 645.307 1188.22 644.246 1197.21 643.781H1197.22Z" fill="#59654A"/>
<path d="M590.362 292.022L582.627 291.998C585.583 287.887 588.395 291.569 584.546 284.299C590.612 285.396 617.631 281.522 619.324 287.243C621.934 296.027 599.634 307.659 590.195 298.78L590.362 292.022Z" fill="#59654A"/>
<path d="M1203 595.452V603.163L1188.85 601.423L1183.72 608.038C1183.22 615.88 1191.88 604.343 1195.28 607.049C1187.14 615.046 1196.36 622.888 1197.2 632.149C1188.79 632.256 1189.15 621.982 1183.69 618.633L1184.98 629.348L1179.82 632.161C1181.54 627.572 1176.17 622.757 1176.32 619.932C1176.51 616.214 1183.03 604.951 1182.66 599.242L1202.99 595.44L1203 595.452Z" fill="#59654A"/>
<path d="M862.851 234.039C860.408 246.411 841.744 241.512 835.856 252.394L843.532 261.07C831.911 267.435 817.156 255.445 829.313 245.898C832.948 243.05 860.706 232.156 862.851 234.051V234.039Z" fill="#59654A"/>
<path d="M335.225 504.587C323.057 511.833 318.48 503.001 308.695 501.19C300.281 499.628 291.33 502.179 283.059 499.783C296.598 488.449 324.082 491.393 335.225 504.587Z" fill="#59654A"/>
<path d="M368.096 521.999C362.363 521.117 353.055 523.477 348.025 521.713C345.487 520.819 345.451 517.244 344.497 516.66C340.433 514.145 329.766 519.997 331.363 512.369C337.275 512.822 339.575 510.438 339.122 504.622C343.889 503.633 346.905 507.959 351.005 509.139C359.967 511.726 369.514 508.162 368.096 521.999Z" fill="#59654A"/>
<path d="M1380.81 775.193C1377.59 787.123 1388.46 786.265 1390.48 794.477C1384.38 793.571 1371.11 812.009 1367.31 808.028C1363.92 798.184 1372.19 794.763 1374.19 788.828C1375.9 783.715 1372.86 774.848 1380.82 775.193H1380.81Z" fill="#59654A"/>
<path d="M352.626 245.636C352.912 250.225 353.246 249.033 349.742 249.474C345.428 250.01 333.485 251.822 330.375 251.607C326.12 251.321 324.57 248.556 322.103 247.924C317.252 246.685 313.594 251.834 310.137 246.589C324.642 233.014 336.584 246.947 352.614 245.636H352.626Z" fill="#59654A"/>
<path d="M1228.15 365.44L1222.32 365.463C1221.87 370.493 1227.34 371.125 1228.16 376.059C1228.76 379.634 1226.72 380.123 1224.23 378.049C1222.79 376.857 1207.78 352.258 1205.61 348.349C1204.12 345.679 1202.25 343.855 1203.03 340.327C1206.73 339.517 1207.65 342.211 1209.59 344.368C1215.84 351.257 1221.83 358.598 1228.15 365.428V365.44Z" fill="#59654A"/>
<path d="M1183.67 541.331C1176.01 538.971 1179.74 533.202 1178.63 529.687C1176.6 523.215 1168.16 516.195 1180.75 510.343L1185.72 515.301L1183.66 541.343L1183.67 541.331Z" fill="#59654A"/>
<path d="M1259.05 804.191C1259.67 813.725 1250.89 820.912 1241.68 819.649C1239.33 805.716 1246.54 803.201 1259.05 804.191Z" fill="#59654A"/>
<path d="M1199.86 571.425C1199.12 571.031 1199.04 568.326 1198.04 568.302C1195.37 568.231 1189.92 572.807 1189.5 572.259L1191.61 562.665C1198.14 565.644 1200.4 559.602 1205.91 556.837C1208.94 557.015 1214.13 578.957 1199.84 571.425H1199.86Z" fill="#59654A"/>
<path d="M373.888 253.383C369.526 262.536 360.48 270.474 352.65 260.093L365.653 253.812L373.888 253.371V253.383Z" fill="#59654A"/>
<path d="M424.124 253.347L393.22 248.532C395.699 244.909 397.82 245.91 401.288 246.065C403.541 246.172 430.429 247.841 424.124 253.347Z" fill="#59654A"/>
<path d="M1199.13 558.732C1195.71 556.658 1194.3 559.22 1191.44 560.662L1187.56 545.216C1195.2 544.096 1199.44 552.165 1199.13 558.732Z" fill="#59654A"/>
<path d="M1214.61 643.781C1210.05 650.98 1203.13 656.105 1195.3 659.227C1192.7 656.665 1209.25 640.885 1214.61 643.781Z" fill="#59654A"/>
<path d="M1166.31 564.512L1179.81 541.331C1179.13 544.334 1181.61 548.684 1180.71 551.092C1180.37 552.01 1169.4 564.75 1166.32 564.512H1166.31Z" fill="#59654A"/>
<path d="M725.635 413.78L723.693 423.434C717.972 423.434 713.896 418.5 710.189 414.722L725.635 413.78Z" fill="#59654A"/>
</g>
<defs>
<filter id="filter0_f_4121_1018" x="80" y="-494" width="1786" height="1786" filterUnits="userSpaceOnUse" color-interpolation-filters="sRGB">
<feFlood flood-opacity="0" result="BackgroundImageFix"/>
<feBlend mode="normal" in="SourceGraphic" in2="BackgroundImageFix" result="shape"/>
<feGaussianBlur stdDeviation="250" result="effect1_foregroundBlur_4121_1018"/>
</filter>
<filter id="filter1_d_4121_1018" x="11.7954" y="210.593" width="1470.2" height="917.407" filterUnits="userSpaceOnUse" color-interpolation-filters="sRGB">
<feFlood flood-opacity="0" result="BackgroundImageFix"/>
<feColorMatrix in="SourceAlpha" type="matrix" values="0 0 0 0 0 0 0 0 0 0 0 0 0 0 0 0 0 0 127 0" result="hardAlpha"/>
<feOffset dy="12"/>
<feGaussianBlur stdDeviation="10"/>
<feComposite in2="hardAlpha" operator="out"/>
<feColorMatrix type="matrix" values="0 0 0 0 0 0 0 0 0 0 0 0 0 0 0 0 0 0 0.3 0"/>
<feBlend mode="normal" in2="BackgroundImageFix" result="effect1_dropShadow_4121_1018"/>
<feBlend mode="normal" in="SourceGraphic" in2="effect1_dropShadow_4121_1018" result="shape"/>
</filter>
</defs>
</svg>
