<?xml version="1.0" encoding="UTF-8"?>
<svg id="Layer_1" xmlns="http://www.w3.org/2000/svg" version="1.1" viewBox="0 0 1200 764.18">
  <!-- Generator: Adobe Illustrator 29.8.1, SVG Export Plug-In . SVG Version: 2.1.1 Build 2)  -->
  <g id="oDbhyu">
    <g>
      <path d="M0,731.74c23.58-10.81,52.99-8.79,78.72-8.17,30.54.73,63.57,6.74,93.98,3.31,3.73-.42,7.9-1.11,10.54-4.07.78-3.42-9.6-9.77-12.76-10.71l.51-4.76c21.49-4.34,44.55.32,66.64.16,8.52-3.24,51.54-.07,55.08-4.92,4.17-5.7-12.01-6.96-14.36-8.38-3.72-2.24-2.87-5.44-2.61-9.41l9.66-1.71c-7.61-15.97-1.32-21.63,12.14-9.72,5.33-6.1-.34-13.22,5.67-20.29,4.51-5.3,33.07-22.55,39.75-23.51,3.02-.43,3.4,1.19,1.66,3.3-5.75,6.96-27.38,12.78-30.97,24.23-2.76,8.8,8.78,34.05,5.43,50.77-3.09,15.39-33.2,14.1-21.38,35.11,8.31,14.77,38.1,13.26,51.49,6.36,16.56-8.53,21.74-37.87,44.07-15.85,4.6-.04,7.57-12.67,14.92-14.36,13.09-3.01,23.17,11.65,34.24-4.66,13.86-20.42,13.24-29.47,42.07-34.15,23.62-3.84,42.25,5.61,60.94,4.33,13.34-.92,30.22-12.09,44.28-12.76,8.15-.39,13.86,2.78,23.35.78,10.11-2.13,22.69-14.49,29.9-15.53,5.38-.77-.29,10.69,4.85,12.93,15.92-5.92,32.84-17.92,49.15-22.15,9.76-2.53,15.37,1.05,23.52-.83,4.91-1.13,10.04-7.7,16.59-7.6,5.11.08,7.88,5.9,12.03,7.22,7.34,2.34,16.16-2.44,21.14,4.77-4.33,6.51-28.12,21-25.85,29.03,4.65,6.2,14-1.92,18.94-5.16,18-11.82,32.69-31.39,56.4-31.32,7.67.02,13.75,2.47,22.54,1.59,26.7-2.67,56.34-15.24,84.46-16.14,16.52-.53,12.18,10.69,25.91,9.89,22.41-1.31,47.38-16.89,71.5-14.72,16.56,1.49,10.06,12.56,17.92,17.74,8.24,5.42,27.84,4.85,40.1,13.41,29.48,20.59-10.76,29.78-13.34,39.79-1.96,7.62,11.86,8.89,13.67,11.78,7.72,12.34-30.06,17.39-28.15,26.57,1.23,5.9,22.73,9.16,28.6,10.26,24.03,4.53,48.16,5.09,72.48,7.11l44.58-4.98v17.84H0v-32.43Z"/>
      <path d="M524.59,167.42c.63-.17,3.37-3.02,3.49-4.02-.89-8.37-7.98-12.49-12.41-18.67,4.9,2.05,8.38-3.89,10.48-4.22,6.26-.98,12.77-1.86,18.63-6.41,2.61-2.03,2.9-6.88,4.93-8.16,2.99-1.88,10.71,4.2,9.06-4.03-1.2-6-4.16-5.77,3.13-11.24l3.96,12.22c10.83,5.1,17.94-2.52,28.24.88,2.56-.45,1.97-9.67,4.11-12.45s12.15-4.55,12.88-5.75c5.79-9.37-12.44.53-14.02-5.64-.29-1.12,1.05-3.16.76-4.44-.56-2.44-2.76-4.72-2.81-6.63-.03-.92,10.76-4.83,7.39-9.03-8.37,2.52-9.54,11.66-18.6,15.42l6.47,8.08c-9.15,4.44-3.87,12.33-13.86,17.01-4.23,1.04-6.43-14.32-11.57-16.01l-15.3,2.14c-9.79-26.73,20.28-15.24,27.75-33.95l-3.25-.8c8.03-8.62,26.7-11.43,38-9.62,4.22.68,10.05,4.27,15.41,5.67,6.92,1.81,13.35-1.44,17.91,6.44l-2.66,3.83-16.78-1.43c3.43,5.44,8.33,9.64,14.58,11.33l-3.23-6.47c2.87-.77,6.35,2.14,8.69,1.75.77-.13,3.99-8.2,10.76-5.01l-3.23-9.71,6.47-.02-.02,5.42c5.24,4.72,7.17-2.61,9.41-3.71,6.02-2.95,18.76.62,26.75-1.77,1.47-.44.53-2.89,3.49-3.29,7.47-1.02,13.49,1.52,20.38,3.35-.79-4.44-8.14-2.83-8.23-7.24-.15-7.41,6.32-11.86,12.9-8.75-3.12,8.91,15.03,19.51.21,20.89-.43,7.71,10.81,4.13,11.46-.87.83-6.41-6.41-10.62-6.59-16.98l8.09,1.62v-4.88s4.86,1.65,4.86,1.65l.03-4.87c3.18-.95,7.78,2.21,10.28,1.46s2.66-5.16,5.35-6.08c4.88-1.68,13.83.82,19.27-.21,3.75-.71,3.03-3.72,5.28-4.84,2.46-1.23,23.72,1.11,28.74,1.55,13.97,1.22,5.97,6.37-.83,11.34,11.26-4.56,23.46,2.07,33.33,1.73,3.91-.13,5.68-3.43,9.44-3.33,6.67.18,18.68,8.61,26.01,9.83l3.24-4.57,13.91,2.84.03-4.83c6.23,2.38,13.2-.11,18.25.31s12.54,5.34,18.36,6.02c6.76.8,11.65-1.87,17.62-1.58s9.91,4.11,14.76,4.84c8.53,1.29,17.33-1.57,25.83,3.36l-.79-4.87c4.6-1.13,10.35,2.9,14.1,2.85,2.27-.03,3.63-2.53,5.87-2.52,4.01.02,18.61,7.71,25,9,8.2,1.66,18.1-.23,26.38,4.43l-1.62,2.45.83,6.42-19.38-6.5-1.91,3.41-10.36-1.71c4.52,6.33,19.64,1.29,21.07,11.33-8.65-4.34-13.65,7.36-15.29,7.59-2.09.3-17.72-2.58-18.76,1.36-1.07,7.49,9.67,7.55,11.99,12.09.21.41,2.35,8.43,2.41,8.89.37,3.28-2.06,10.6.18,15.49-3.9-1.32-5.02-5.72-7.73-8.12-3.33-2.95-16.17-10.4-17.45-12.96-3.46-6.89,12.31-26.11-2.36-25.93l1.61,8.09c-5.19.26-9.24-7.65-14.61-4.06-4.71,4.33,4.28,5.98,3.26,10.55-5.91,1.92-12.27-2.95-16.98-3-3.1-.03-6.65,2.01-10.01,2.45-4.18.55-6.82-3.74-11.02,2.28-.72,1.03-6.37,13.99-5.76,14.48,6.44-2.82,8.56,3.28,9.11,3.34,3.17.35,5.58-2.94,10.25-.9,7.78,3.39,7.63,8.39,10.26,14.16,3.91,8.59,5.71,7.84,4.24,19.71-2.52,20.4-14.01,8.71-16.02,10.73,1.23,6.54,3,9.4-3.23,13.81l-.02,2.36c8.77,2.48,21.68,19.89,4.9,19.47-1.46-3.2-.94-8.66-2.5-11.31-2.8-4.78-13.15.1-12.19-11.34l-11.3,3.21-2.42-6.47-8.93,6.5c.82,11.47,17.11,3.85,19.43,8.91,1.59,3.48-7.97,2.99-6.29,9.38.87,3.3,9.28,8.05,10.44,10.9,1.03,2.54-1.39,5.24-.75,6.21s6.52,1.35,6.09,5.61c-.1.96-5.5,17.04-6.18,18.19-5.02,8.43-16.8,11.89-25.3,15.29l2.15,7.38-5.32,5.65-3.96-2.55c7.01-22.24-15.64-8.3-10.62,2.53,3.09,6.66,12.51,7.39,15.5,18.63,3.56,13.4-.26,9.29-6.47,14.72-3.22,2.81-3.52,8.63-9.82,7.24,1.66-8.64-2.18-8.03-6.5-12.17-2.08-1.99-3.3-8.72-7.27-4.03-6.59,11.2.01,24.28,9.44,31.16l3.49,15.85c-11.53-2.97-11.13-14.11-15.62-21.67-1.78-2.99-6.03-5.35-7.03-7.56-1.59-3.5-1.77-35.62-8.14-35.62-2.6,2.81-4.61,5.61-8.91,4.83,2.58-11.88-7.89-18.49-13.96-27.35-8.21-.82-33.16,21.93-35.48,27.39-3.17,7.46,1.39,14.05.78,20.1-.42,4.11-4.85,7.08-4.61,9.61.09.99,11.11,19.45-1.05,15.65-5.37-1.68.22-10.55-1.03-12.69-.25-.43-5.07-2.62-7.64-6.21s-12.06-23.1-13.34-27.19c-2.73-8.73-.22-16.71-3.17-25.23l-3.2.78,1.59,4.07c-9.18.69-13.57.26-9.73-9.71-10.44,3.2-9.46-6.83-12.94-8.96-5.59-3.4-16.07,1.45-21.51.57-5.36-.87-12.84-8.52-16.97-9.19s-8.13,3.23-10.81,2.69c-1.29-.26-10.36-11.21-12.63-13.24-2.08-1.86-1.94-3.67-6.21-2.69-1.66,6.45,2.5,14.08,8.19,16.98,6.59,3.36,5.41-2.75,8.01,9.8,1,.73,7.72-1.79,8.82-2.58,3.01-2.16,1.77-7.94,4.95-6.36,2.55,1.27,3.08,6.3,4.92,8.06s5.11,1.56,6.43,3.29c8.41,11.04-6.86,20.37-13.89,26.65-1.65,1.48-2.68,4.89-3.5,5.37s-14.18,5.6-17.91,7.24c-2.05.9-15.43,6.19-16.27,5.98-6.65-1.65-5.8-19.29-9.4-24.81-1.81-2.77-5.92-3.77-7.98-6.61-2.8-3.85-2.76-9.54-5.68-13.78-4.79-6.97-10.48-14.53-15.57-21.73-2.39-3.38-8.66-3.83-5.51-9.19,8.41-2.33,16.7-26.8,2.48-23.59-9.84,2.23-6.34-.73-10.54-.71-3.29.02-3.94,5.47-8.89.03.25,3.36.2,3.69-3.26,3.24,1.12-8.53-8.69-10.38-4.88-19.46-4.38.29-9.85-1.58-12.96,2.45l6.43,8.03-7.23,8.96c-9.92-4.27-7.52-24-12.93-29.24-2.27-2.19-6.13-1.15-8.93-2.42-.95-.43-16.34-16.58-12.78-3.47,1.2,4.42,15.75,14.14,20.82,15.71v3.21s-4.84-1.62-4.84-1.62l-2.45,11.34c1.4-5.89-22.45-27.07-24.3-27.2-1.07-.08-14.25,8.34-20.28,4.51l.95,6.5-13.23,6.43c2.91,4.78,1.42,11.5-4.01,13.89-2.85,1.26-4.89-.61-7-.35-2.38.29-4.91,2.21-6.68,2.04-2.79-.25-6.76-5.43-12.17-.96l1.61-29.19c6.93-1.18,19.05,1.62,25.14,0ZM635.5,157.95c-5.98-5.25-7.22,6.62-9.59,10.4,1.67,13.27,12.92,1.64,18.63,2.24,3.53.37,9.46,8.39,17.09,4.92-.25-1.92.62-4.68-.29-6.22-.35-.6-11.57-6.31-12.25-6.44-2.46-.48-4.99,1.24-7.64,1.2-7.56-.12-5.28-5.51-5.95-6.11ZM700.54,164.17c-.41-12.1-20.89-4.39-21.05,2.39s8.16,7.71,9.4,11.7c2.78,8.99-4.75,22.39,14.1,22.97,13.75.42.03-13.12-.6-15.53-.74-2.82,1.25-5.65.71-8.68-.88-5.04-22.03-10.82-2.57-12.85Z"/>
      <path d="M562.69,198.24l-4.85,16.19c4.68,2.38,10.91.69,15.11,1.93,3.64,1.08,3.67,6,7.13,7.46,2.01.85,12.11,2.46,14,1.82,3.48-.83,3.23-8.5,4.48-9.38,3.43-2.39,17.66,6.78,23.74,7.58,5.75.76,11.88-2.41,16.52,1.23,5.12,4.02,11.47,24.68,14.02,31.39,3.7,9.74,5.66,13.18,10.78,21.61,2.23,3.67,2.39,9.43,4.36,11.9,2.34,2.93,7.39,2.42,9.46,4.34,2.4,2.22,2.91,10.26,5.95,12.74,5.12,4.18,21.55-6.62,28.59-2.7,5.35,3.68-7.17,22.82-10.12,27.35-5.24,8.05-12.22,16.41-19.26,22.9-4.96,4.58-7.43,1.96-11.55,11.15-9.61,21.44-.58,27.11.84,45.14,1.37,17.39-16.86,16.88-20.77,25.75-1.87,4.24-1.14,10.98-3.29,16.17-4.65,11.22-5.16,3.37-5.87,18.73-.25,5.54-7.17,8.46-10.42,12.01-2.91,3.18-3.65,8.38-7.61,10.22-4.94,2.3-10.93.56-16.26,1.58-4.69.9-15.68,7.76-19.04,1.64-2.66-4.84-.86-13.25-1.97-18.69-.71-3.49-7.22-22.39-8.84-26.84-2.69-7.36-10.06-11.94-11.5-20.95-2.73-17.05,13.31-24.15,5.3-44.19-2.39-5.98-12.53-23.16-13.44-27.09-1.94-8.34,2.62-15.64-.59-22.95-4.47-1.2-10.77.95-14.9-.49-2.34-.81-3.03-4.53-5.31-6.07-8.2-5.53-16.64,6.08-24.31,6.28-4.18.11-6.62-3.11-9.56-3.11-4.48,0-5.2,4.55-13.49,2.09-12.77-3.78-31.24-22-32.19-35.62-.49-7.02,4.2-16,4.38-22.57.19-6.92-4.3-12.79-2.11-19.71.97-3.05,13.35-19.34,15.93-21.49,3.01-2.51,7.47-2.21,9.59-5.01s1.72-7.86,3.42-11.17c2.81-5.46,7.99-5.26,10.4-7.49,1.9-1.75,1.28-4.82,1.85-5.36,2.16-2.06,12.82,2.13,16.77,1.45,4.99-.85,4.28-7.37,9.86-8.23,4.26-.65,7.94,1.96,11.2,1.64,2.29-.23,4.13-2.69,6.62-3.15,5.66-1.04,11.34,1.54,16.94-.06Z"/>
      <path d="M252.98,76.63c-.36,3.04,3.29,1.26,4.94.88,3.52-.8,6.28-2.9,10.53-2.71,3.44.15,1.34,4.15,4.57,3.25,7.67-2.25,4.79-7.09,6.14-9.25.73-1.17,9.7-3.13,11.1-1.12l-3.23,5.67,6.48.02-3.24,6.45c5.46,3.99,16.93-15.62,21.06-5.63,1.29,3.1-2.85,2.53-3.85,3.96-.66.95.42,3.05-.93,4.09-2.62,2-8.1,2.33-11.41,2.48l4.86,9.71c-8.58-3.76-9.02,3.11-16.2,3.26,0-2.63-.29-6.57-3.79-6.28s-29.6,16.07-31.06,19.27c-7.27,15.87,9.06,8.01,14.65,11.25,7.26,4.2,7.36,12.24,8.86,19.54,6.83,1.27,6.75-5.76,10.44-9.8,3.13-3.43,8.62-5.02,11.31-8.15,6.24-7.24,6.63-27.86,21.11-25.87,7.85,1.08,5.76,13.82,11.58,17.79,4.86,1.96,8.32-11.72,12.88-4.81,1.64,2.49.22,8.65,1.84,12.64,2.22,5.49,15.51,6.33,5.42,21.44l5.54,1.46c4.87,11.24-9.08,7.39-16.03,9.91l-1.79-3.3,5.79-9.65c-5.54-.83-10.18,3.04-15.46,3.31-9.75.5-20.1-6.54-23.45,9.63l19.44-4.85-8.1,9.71,13.64,1.5.94,5c-12.01-3.9-16.76,1.64-26.73,6.51l2.42-6.49c-.7-.54-14.41,6.81-15.51,7.99-2.93,3.16-1.57,7.35-4.87,9.73-3.75,2.7-16.02,3.11-19.75,7-3.39,3.55-.89,11.3-2.87,15.78-2.66,6.01-13.12,9.28-17.81,13-9.28,7.36-9.09,18.33-10.55,29.18-4.09,4.36-7.95-15.31-6.49-17.84-7.21,2.19-13.01-3.95-21.69-3.17-2.74.25-17.74,4.44-20.46,5.61-16.51,7.09-17.75,48.01,2.35,44.61,7.8-1.32,9.58-18.08,19.63-11.42,3.93,5.45-14.58,19.79-3.29,21.23,4.52.58,11.47-4.82,14.56,1.53,3.56,7.33-3.16,20.03-.1,24.42,2.9,4.15,18.77-3.87,23.61,3.98-2.89,8.92-10.91-4.9-15.42,7.28l-1.54-.04c-3.47-1.46-5.89-7.72-7.81-9.22-2.67-2.09-7.12-1.53-9.41-4.4s-2.55-10.23-4.94-13.71c-2.48-1.54-7.98,2.24-11.62,1.22s-5.53-8.62-9.27-10.32c-4.35-1.97-10.74-.21-16.24-1.59-3-.76-18.81-9.14-21.1-11.33-6.85-6.52-4.39-16.33-7.68-24.75-1.76-4.51-5.41-7.01-7.17-10.67-2.1-4.35-3.31-15.6-6.99-17.35-7.56-3.6.13,13.22.39,14.22,1.16,4.46,1.29,10.35,2.44,13.77,1.07,3.17,5.08,3.9,4.48,7.66-14.38,1.6-7.62-16.38-16.2-21.89l3.31-1.62c-4.82-7.91-5.35-10.94-3.44-20.13-15.24-4.75-11.95-25.12-6.66-36.91,2.34-5.21,14.2-19.82,14.5-22.64.52-4.88-6.9-10.38.39-13.03l-6.45-33.81c-6.57-6.66-34.77-.42-42.68,4.43-2.69,1.65-3.3,5.16-5.45,5.9-3.38,1.17-9.47-.15-13.96.63-7.32,1.27-13.19,8.16-20.65,6.92l22.69-14.61c-4.92-.12-11.68,1.78-10.98-6.23,1.06-12.28,26.14-5.52,30.45-15.64l-12.94-.83c5.62-8.49,12.6-5.48,21.04-4.06l-.95-9.81c2.34-3.13,39.65-8.5,45.62-8.09,16.23,1.1,30.29,9.81,48.42,8,6.28-.63,14.59-4.59,21.04-4.16,4.96.33,22.57,8.66,26.25,2.78.56-.89-1.96-7.06,2.34-9.78l-14.59,3.23c-4.59-7.91,12.92-14.6,18.72-14.39,7.21.25,9.11,10.4,25.79,7.81,3.8-.59,7.15-4.17,11.4-3.14,5.9,1.42-3.85,8.03-4.65,9.68-1.38,2.86,1.96,7.57-7.47,8.17Z"/>
      <path d="M272.41,308.51c1.76,8.38,6.42,12.63,15.32,11.29,2.84-.43,6.03-3.31,7.98-2.95s6.69,6.73,9.22,8.63,5.89,1.7,7.57,2.97c1.92,1.45,3.02,7.07,5.36,8.42,2.6,1.5,6.63.46,9.79,1.56s13.29,8.59,14.19,11.75c2.55,8.96-4.03,8.13,6.18,14.17.62.37.68,2.03,1.02,2.18,1,.45,8.72-1.63,13.06.33,2.03.92,1.02,4.27,2.73,5.8.69.62,13.64.17,17.51,1.77,2.67,1.1,2.7,4.71,5.26,6.17s7.42,1.03,9.33,2.86c9.13,8.76-11.76,29.67-13.51,36.87-2.43,9.94,8.96,16.58-.98,31.41-4.9,7.32-11.61,6.05-18.68,10.51-11.8,7.44-4.69,12.7-7.68,23.16-.93,3.26-4.27,3.7-6.17,6.73-7.39,11.73.27,20.39-18.03,12.31-8.7-3.84,1.42,9.99,1.9,12.82,2.59,15.1-20.15-4.02-12.69,16.63l-8.09-1.61c-1.18,3.5,4.42,5.35,4.44,7.25,0,1.05-6.11,13.43-5.94,14.44l7.91,6.82c-2.01,3.88-4.07,11.5-2.92,15.71,1.48,5.43,14.42,9.57,17.57,14.13-26.08,3.25-48.93-18.58-46.91-44.48-.48-1.8-3.89-.08-5.14-1.85-5.35-7.6-1.62-32.17-3.18-41.94-.68-4.28-3.98-7.27-4.67-11.55-2.54-15.89,1.08-36.75-3.78-52.98-2.93-6.71-11.18-7-16.9-10.67-11.72-7.53-11.57-21.57-18-32.27-1.87-3.11-7.73-7.8-8.07-9.58-.19-1,.13-19.13.34-20.13,1.15-5.46,9.18-12.5,11.01-18.23,3.46-10.82.06-9.18,6.8-20.76,1.2-2.06.86-5.41,2.41-7.32,3.02-3.74,8.14-1.14,11.49-3.1,1.63-.95,2.16-4.49,4.07-5.67,3.91-2.41-.61,7.35,4.02,6.48l1.64-7.07,3.22-1.03Z"/>
      <path d="M1049.17,412.3h6.51c.43,5.07-2.87,9.87-1.34,15.03,1.25,4.19,6.65,4.97,7.91,7.15s.81,5.67,1.88,7.5c2.6,4.44,7.65,6.69,7.8,14.85.04,2.19-2.07,20.91-2.52,21.91-1.79,3.96-13.7,11.37-17.82,16.23-2.38,2.81-7.96,13.3-8.87,13.83-2.21,1.28-5.74.51-8.49,1.23-7.24,1.9-9.04.67-13.02,1.5-3.63.76-6.08,5.3-12.53,1.22l1.48-8.65c-1.36-5.2-7.7-.02-8.01-1.83-.6-3.46,2.68-2.16,4.54-5.12.73-1.17,2.52-6.41,1.95-7.02l-11.33,6.47-2.42-9.76c-2.26-3.04-21.67-.89-25.64.37-3.07.97-4.12,4.93-7.15,5.83-4.07,1.2-9.29-.25-13.92.68-6.65,1.33-13.81,10.6-20.63,2.03,10.62-11.44,5.2-19.36,1.53-32.2,6.22-2.07,1.77-4.4,1.91-8.37.17-4.72,5.98-8.08,3.04-13.7,6.85,1.77,10.26-3.07,15.32-4.97,3.48-1.3,7.59-.99,10.57-2.41,4.81-2.3,5.75-9.89,8.92-12.3,1.24-.94,8.11-1,11.34-4.68,2.32-2.63,2.83-7.57,6.59-9.7,3.39-.71,3.95,4.19,4.2,6.4l6.26.08c-1.92-9.46,9.56-9.59,11.45-16.22,5.24,5.9,12.91.6,17.77,5.68-.01,1.72-10.69,5.67-4.32,13.31.43.52,8.22,6.58,8.75,6.74,14.22,4.09,6.83-28.97,14.25-28.93,4.62,4.71,4.18,11.79,4.04,17.82Z"/>
      <path d="M363.24,42.55c28.79-7.58,55.77-10.42,85.15-14.57l59.17,3.23c-.16,6.98-9.38,4.15-15.03,6.84-12.39,5.9-7.21,15.13-9.52,18.86-.25.4-4.74,1.41-6.94,3.59-3.85,3.8-3.61,9.95-4.46,10.94-2.08,2.42-18.99,2.98-22.86,3.91-1.63.39-29.43,11.63-30.86,12.52s-11.3,10.21-14.93,13.06c-4.63,3.64-4.61,11.42-13.9,4.18-10.03-7.81-3.99-27.28,6.61-32.56l-9.72-.82,6.4-9.61c-6.75-.04-3.82-9.22-7.47-11.59l-23.25-3.13c-.3-1.91.85-3.29,1.62-4.85-2.98.78-6.82-.1-10.24,1.93-2.69,1.6-3.54,5.57-5.37,6.12-3.18.96-5.14-3.04-7.9-3.14-3.56-.13-8.93,6.44-13.07,1.63l-.79-6.47c-1.2-1.26-13.24,2.29-11.28-2.47,4.73-11.49,41.56-7.02,51.87-4.06.51,2.94-2.17,4.32-3.24,6.47Z"/>
      <path d="M300,62.01c9.93-1.61,17.09-4.88,28.45-3.31,5.99.83,7.86,5.2,11.66,6.18,3.57.91,14.15-1.24,13.26,4.24l-4.35,6.7c18.77,20.07-5.84,7.94-6.85,8.91l1.6,8.09-6.46-1.61,3.22,12.96c-7.14-1.98-17.76-3.59-16.27-12.9l-12.9-.08c-.68-3.68.17-2.59,2.06-3.62,1.31-.71,21.36-7.12,17.38-10.96l-8.92,4.82c-5.7-3.95,3.15-4.39,3.86-7.45-1.12-9.58-4.75-3.66-10.42-3.74-4.43-.07-9.67-5.35-16.94-1.75-.81-2.7,1.09-4.53,1.61-6.48-4.18.68-8.83-.19-12.96,1.62-.87-6.18,12.87-11.39,14.58-5.61.39,1.3-1.34,2.95-1.62,3.99Z"/>
      <path d="M681.5,460.5c-9.2-8.31,3.29-19.49,4.16-25.03.61-3.94-2.7-8.5-1.03-13.95s9.84-5.52,12.26-8.01c2.64-2.73,4.44-23.37,11.38-9.77,3.96,7.76-3.01,32.72-6.49,41.4-2.79,6.96-10.91,23.82-20.27,15.36Z"/>
      <path d="M1019.78,360.25l-3.02.95c5.56,7.49,9.31-4.17,13.47-3.78,1.44.13,24.9,9.18,26.95,10.39,3.53,2.08,7.15,7.55,11.46,9.64l-4.86,4.84,12.97,12.15c-12.63,1.85-13.82-12.52-24.05-11.04-5.97,14.63-13.28-3.42-24.6,2.93,12.67-12.31-4.5-18.9-16.21-17.83,2.71-7.85-1.03-7.87-6.46-12.15,5.36-6.52,13.2-4.19,14.34,3.91Z"/>
      <path d="M925.94,344.19c11.8,1.97,8.7-6.46,11.79-9.34.93-.87,4.15-.81,6.15-2.71,2.9-2.77,6.06-9.16,9.56-10.04,3.17-.79,7.16,6.69,6.36,9.58-1.71,6.16-7.98,2.85,1.6,14.64-.71,4.76-7.09,7.65-8.62,10.9s-.72,10.1-4.09,12.12c-4.42,2.65-14.77-3.46-20.43-4,1.39-8.57,0-13.09-2.31-21.15Z"/>
      <path d="M1011.89,178.78c-.15,5.13,6.26,6.64,7.72,10.92,1.29,3.79,1.57,11.24,1.81,15.55-.25.79-13.05,8.62-13.93,8.87-6.24,1.8-10.33-2.1-14.26,6.79-9.02-15.42,8.59-11.21,12.24-13.68,1.47-.99,1.64-4.8,3.11-6.68,1.31-1.67,4.7-1.82,5.04-3.41,1.65-7.77-7.21-14.55-7.96-17.87-.62-2.72,2.29-7.92-.25-11.83l16.2,5.69c-.59,4.93-5.46,6.07-9.72,5.66Z"/>
      <path d="M906.68,378.02c-.44-.25-3.26-6.57-5.11-8.68-2.36-2.7-9.53-8.48-10.46-10.61-1.8-4.13-.18-7.68-3.35-12.87-4.03-6.58-13.25-9.24-16.95-16.27,9.84-1.87,11.14,6.34,16.27,10.47,4.72,3.81,11.55,4.16,16.18,9.77,2.03,2.46,9.17,14.95,9.62,17.97.63,4.33-.08,13.73-6.2,10.22Z"/>
      <path d="M1115.67,519.31c3.31,7.21-5.89,13.88-11.45,16.92-2.86,1.56-26.46,10.07-27.45,9.02-1.25-11.53,16.49-14.51,25.44-19.14,4.48-2.32,7.4-7.78,13.47-6.8Z"/>
      <path d="M977.84,384.73c-.63,3.4-3.52,2.54-5.71,3.2-13.62,4.09-11.44,1.72-22.76.12-11.33-1.61-29.14,1.42-36.4-8.18,8.6.64,18.32-.94,26.76-.02,6.09.67,8.9,4,13.05,4.78,7.31,1.38,17.51.49,25.05.1Z"/>
      <path d="M468.66,89.59l-6.49-.02c2.48-3.45,4.84-.36,1.61-6.46,5.09.92,27.76-2.33,29.18,2.47,2.19,7.37-16.52,17.13-24.44,9.68l.14-5.67Z"/>
      <path d="M982.69,344.18v6.47s-11.87-1.46-11.87-1.46l-4.31,5.55c-.42,6.58,6.85-3.1,9.7-.83-6.83,6.71.91,13.29,1.61,21.06-7.05.09-6.75-8.53-11.33-11.34l1.08,8.99-4.33,2.36c1.44-3.85-3.06-7.89-2.94-10.26.16-3.12,5.63-12.57,5.32-17.36l17.06-3.19Z"/>
      <path d="M697.29,40.94c-2.05,10.38-17.71,6.27-22.65,15.4l6.44,7.28c-9.75,5.34-22.13-4.72-11.93-12.73,3.05-2.39,26.34-11.53,28.14-9.94Z"/>
      <path d="M254.59,267.94c-10.21,6.08-14.05-1.33-22.26-2.85-7.06-1.31-14.57.83-21.51-1.18,11.36-9.51,34.42-7.04,43.77,4.03Z"/>
      <path d="M282.17,282.55c-4.81-.74-12.62,1.24-16.84-.24-2.13-.75-2.16-3.75-2.96-4.24-3.41-2.11-12.36,2.8-11.02-3.6,4.96.38,6.89-1.62,6.51-6.5,4-.83,6.53,2.8,9.97,3.79,7.52,2.17,15.53-.82,14.34,10.79Z"/>
      <path d="M1131.88,494.99c-2.7,10.01,6.42,9.29,8.11,16.18-5.12-.76-16.25,14.71-19.44,11.37-2.84-8.26,4.1-11.13,5.77-16.11,1.44-4.29-1.11-11.73,5.57-11.44Z"/>
      <path d="M269.19,50.67c.24,3.85.52,2.85-2.42,3.22-3.62.45-13.64,1.97-16.25,1.79-3.57-.24-4.87-2.56-6.94-3.09-4.07-1.04-7.14,3.28-10.04-1.12,12.17-11.39,22.19.3,35.64-.8Z"/>
      <path d="M1003.79,151.19l-4.89.02c-.38,4.22,4.21,4.75,4.9,8.89.5,3-1.21,3.41-3.3,1.67-1.21-1-13.8-21.64-15.62-24.92-1.25-2.24-2.82-3.77-2.17-6.73,3.11-.68,3.88,1.58,5.51,3.39,5.24,5.78,10.27,11.94,15.57,17.67Z"/>
      <path d="M966.47,298.77c-6.43-1.98-3.3-6.82-4.23-9.77-1.7-5.43-8.78-11.32,1.78-16.23l4.17,4.16-1.73,21.85Z"/>
      <path d="M1029.72,519.32c.52,8-6.85,14.03-14.58,12.97-1.97-11.69,4.08-13.8,14.58-12.97Z"/>
      <path d="M980.05,324.02c-.62-.33-.68-2.6-1.52-2.62-2.24-.06-6.82,3.78-7.17,3.32l1.77-8.05c5.48,2.5,7.38-2.57,12-4.89,2.54.15,6.9,18.56-5.09,12.24Z"/>
      <path d="M287.03,57.17c-3.66,7.68-11.25,14.34-17.82,5.63l10.91-5.27,6.91-.37Z"/>
      <path d="M329.18,57.14l-25.93-4.04c2.08-3.04,3.86-2.2,6.77-2.07,1.89.09,24.45,1.49,19.16,6.11Z"/>
      <path d="M979.44,313.37c-2.87-1.74-4.05.41-6.45,1.62l-3.26-12.96c6.41-.94,9.97,5.83,9.71,11.34Z"/>
      <path d="M992.43,384.73c-3.83,6.04-9.63,10.34-16.2,12.96-2.18-2.15,11.7-15.39,16.2-12.96Z"/>
      <path d="M951.9,318.22l11.33-19.45c-.57,2.52,1.51,6.17.76,8.19-.29.77-9.49,11.46-12.08,11.26Z"/>
      <path d="M582.16,191.75l-1.63,8.1c-4.8,0-8.22-4.14-11.33-7.31l12.96-.79Z"/>
    </g>
  </g>
</svg>